<svg width="450" height="432" viewBox="0 0 450 432" fill="none" xmlns="http://www.w3.org/2000/svg">
<g clip-path="url(#clip0_5463_79808)">
<path d="M224.998 431.836C349.005 431.836 449.532 371.646 449.532 297.396C449.532 223.147 349.005 162.957 224.998 162.957C100.992 162.957 0.464844 223.147 0.464844 297.396C0.464844 371.646 100.992 431.836 224.998 431.836Z" fill="#F5F5F5"/>
<path d="M346.97 278.518C368.842 278.518 386.573 267.489 386.573 253.883C386.573 240.278 368.842 229.249 346.97 229.249C325.098 229.249 307.367 240.278 307.367 253.883C307.367 267.489 325.098 278.518 346.97 278.518Z" fill="#E0E0E0"/>
<path d="M239.115 349.071C276.428 349.071 306.676 331.251 306.676 309.269C306.676 287.287 276.428 269.467 239.115 269.467C201.803 269.467 171.555 287.287 171.555 309.269C171.555 331.251 201.803 349.071 239.115 349.071Z" fill="#E0E0E0"/>
<path d="M357.206 386.941C372.887 386.941 385.599 379.451 385.599 370.212C385.599 360.972 372.887 353.483 357.206 353.483C341.525 353.483 328.812 360.972 328.812 370.212C328.812 379.451 341.525 386.941 357.206 386.941Z" fill="#E0E0E0"/>
<path d="M259.613 179.099L60.1399 293.411C57.1997 295.104 53.8663 295.995 50.4735 295.995C47.0806 295.995 43.7473 295.104 40.8071 293.411L32.343 288.431C31.1814 287.758 30.2171 286.791 29.5467 285.628C28.8763 284.465 28.5234 283.146 28.5234 281.803C28.5234 280.461 28.8763 279.142 29.5467 277.979C30.2171 276.816 31.1814 275.849 32.343 275.176L231.816 160.855C234.756 159.162 238.089 158.271 241.482 158.271C244.875 158.271 248.208 159.162 251.149 160.855L259.613 165.835C260.777 166.507 261.743 167.474 262.415 168.638C263.087 169.802 263.44 171.123 263.44 172.467C263.44 173.811 263.087 175.131 262.415 176.295C261.743 177.46 260.777 178.426 259.613 179.099Z" fill="#E0E0E0"/>
<path d="M271.051 392.678L312.377 416.537L347.852 396.229L307.719 371.859L271.051 392.678Z" fill="#E0E0E0"/>
<path d="M255.548 387.746C255.467 387.747 255.388 387.724 255.321 387.679L103.375 299.962C103.266 299.899 103.186 299.796 103.153 299.674C103.12 299.553 103.137 299.423 103.2 299.314C103.263 299.204 103.366 299.125 103.488 299.092C103.61 299.059 103.739 299.076 103.848 299.138L255.794 386.865C255.883 386.918 255.953 387 255.992 387.096C256.031 387.193 256.036 387.3 256.008 387.4C255.98 387.5 255.92 387.588 255.837 387.651C255.753 387.713 255.652 387.747 255.548 387.746Z" fill="#455A64"/>
<path d="M272.931 378.307C272.847 378.308 272.765 378.285 272.694 378.24L120.266 290.192C120.212 290.161 120.164 290.119 120.126 290.07C120.088 290.02 120.06 289.964 120.044 289.904C120.028 289.843 120.023 289.781 120.031 289.719C120.039 289.657 120.059 289.597 120.091 289.543C120.122 289.489 120.163 289.442 120.212 289.404C120.262 289.365 120.318 289.337 120.379 289.321C120.439 289.305 120.502 289.301 120.563 289.309C120.625 289.317 120.685 289.337 120.739 289.368L273.167 377.417C273.256 377.469 273.325 377.55 273.364 377.645C273.403 377.741 273.41 377.847 273.383 377.947C273.356 378.046 273.297 378.135 273.216 378.198C273.134 378.261 273.034 378.296 272.931 378.297V378.307Z" fill="#455A64"/>
<path d="M289.594 368.46C289.517 368.457 289.442 368.435 289.376 368.394L137.109 280.497C137.001 280.432 136.922 280.327 136.891 280.205C136.859 280.083 136.876 279.953 136.939 279.844C136.969 279.789 137.01 279.742 137.059 279.704C137.108 279.666 137.164 279.638 137.224 279.622C137.284 279.606 137.347 279.603 137.409 279.611C137.47 279.62 137.529 279.641 137.582 279.673L289.831 367.58C289.94 367.641 290.02 367.744 290.054 367.865C290.088 367.985 290.072 368.114 290.011 368.224C289.968 368.296 289.907 368.356 289.834 368.397C289.761 368.439 289.678 368.461 289.594 368.46Z" fill="#455A64"/>
<path d="M306.266 358.614C306.183 358.616 306.1 358.593 306.03 358.548L153.989 270.755C153.929 270.727 153.875 270.688 153.831 270.638C153.787 270.589 153.754 270.531 153.733 270.468C153.713 270.405 153.707 270.338 153.714 270.272C153.721 270.206 153.742 270.143 153.775 270.085C153.808 270.028 153.853 269.979 153.907 269.94C153.961 269.901 154.022 269.874 154.087 269.86C154.152 269.846 154.218 269.847 154.283 269.86C154.348 269.874 154.409 269.902 154.463 269.941L306.522 357.724C306.63 357.789 306.708 357.894 306.74 358.016C306.772 358.138 306.755 358.268 306.692 358.377C306.649 358.452 306.587 358.513 306.512 358.555C306.437 358.596 306.352 358.617 306.266 358.614Z" fill="#455A64"/>
<path d="M322.939 348.768C322.856 348.765 322.775 348.742 322.702 348.701L170.842 261.022C170.733 260.96 170.653 260.858 170.619 260.737C170.585 260.617 170.601 260.487 170.662 260.378C170.727 260.27 170.832 260.192 170.954 260.16C171.076 260.128 171.206 260.145 171.315 260.208L323.176 347.878C323.284 347.943 323.362 348.048 323.394 348.17C323.426 348.292 323.409 348.421 323.346 348.531C323.305 348.603 323.245 348.662 323.174 348.704C323.103 348.745 323.022 348.767 322.939 348.768Z" fill="#455A64"/>
<path d="M340.377 339.357C340.295 339.358 340.213 339.339 340.14 339.3L187.958 251.431C187.898 251.404 187.844 251.364 187.8 251.315C187.756 251.265 187.722 251.207 187.702 251.144C187.682 251.081 187.675 251.015 187.682 250.949C187.69 250.883 187.711 250.819 187.744 250.762C187.777 250.705 187.822 250.655 187.876 250.616C187.929 250.577 187.991 250.55 188.055 250.537C188.12 250.523 188.187 250.523 188.252 250.537C188.317 250.551 188.378 250.578 188.431 250.617L340.614 338.476C340.703 338.529 340.772 338.609 340.811 338.705C340.85 338.801 340.856 338.907 340.829 339.006C340.802 339.106 340.744 339.194 340.662 339.258C340.58 339.321 340.48 339.356 340.377 339.357Z" fill="#455A64"/>
<path d="M357.202 329.577C357.121 329.578 357.042 329.555 356.974 329.511L204.584 241.528C204.529 241.499 204.48 241.458 204.441 241.409C204.403 241.361 204.374 241.305 204.357 241.245C204.34 241.184 204.336 241.122 204.344 241.06C204.352 240.998 204.372 240.938 204.404 240.884C204.469 240.776 204.574 240.698 204.696 240.666C204.818 240.634 204.948 240.651 205.057 240.714L357.486 328.696C357.575 328.749 357.645 328.831 357.683 328.927C357.722 329.024 357.728 329.131 357.7 329.231C357.672 329.331 357.612 329.419 357.528 329.482C357.445 329.545 357.344 329.578 357.239 329.577H357.202Z" fill="#455A64"/>
<path d="M222.601 387.414C222.498 387.413 222.398 387.379 222.316 387.315C222.235 387.252 222.176 387.164 222.149 387.064C222.122 386.964 222.129 386.858 222.168 386.763C222.207 386.667 222.276 386.587 222.365 386.534L356.975 308.814C357.029 308.783 357.089 308.763 357.151 308.755C357.212 308.747 357.275 308.751 357.336 308.768C357.396 308.784 357.452 308.812 357.502 308.85C357.551 308.888 357.592 308.935 357.624 308.99C357.655 309.044 357.675 309.103 357.683 309.165C357.691 309.227 357.687 309.29 357.67 309.35C357.654 309.41 357.626 309.467 357.588 309.516C357.55 309.566 357.502 309.607 357.448 309.638L222.838 387.329C222.77 387.381 222.687 387.41 222.601 387.414Z" fill="#455A64"/>
<path d="M205.777 377.701C205.674 377.7 205.574 377.665 205.492 377.602C205.41 377.538 205.352 377.45 205.325 377.35C205.298 377.25 205.305 377.145 205.343 377.049C205.382 376.953 205.452 376.873 205.54 376.82L340.132 299.12C340.185 299.081 340.247 299.053 340.311 299.04C340.376 299.026 340.443 299.026 340.508 299.039C340.573 299.053 340.634 299.08 340.688 299.119C340.741 299.158 340.786 299.207 340.82 299.264C340.853 299.322 340.874 299.385 340.881 299.451C340.888 299.517 340.881 299.584 340.861 299.647C340.841 299.71 340.808 299.768 340.764 299.817C340.72 299.867 340.666 299.907 340.605 299.934L206.061 377.644C205.974 377.69 205.875 377.709 205.777 377.701Z" fill="#455A64"/>
<path d="M189.021 367.987C188.939 367.986 188.858 367.964 188.786 367.923C188.715 367.881 188.656 367.822 188.614 367.75C188.552 367.641 188.535 367.511 188.566 367.389C188.598 367.267 188.677 367.162 188.785 367.097L323.338 289.415C323.391 289.383 323.451 289.362 323.512 289.354C323.574 289.345 323.636 289.348 323.696 289.364C323.756 289.38 323.812 289.408 323.862 289.446C323.911 289.484 323.952 289.532 323.982 289.586C324.045 289.695 324.062 289.825 324.03 289.947C323.998 290.069 323.92 290.174 323.812 290.239L189.211 367.921C189.153 367.955 189.088 367.977 189.021 367.987Z" fill="#455A64"/>
<path d="M172.119 358.292C172.037 358.292 171.955 358.269 171.884 358.228C171.813 358.186 171.753 358.127 171.712 358.055C171.649 357.946 171.632 357.816 171.664 357.694C171.696 357.572 171.774 357.467 171.882 357.402L306.417 279.711C306.527 279.652 306.655 279.638 306.775 279.672C306.895 279.705 306.997 279.784 307.061 279.891C307.093 279.944 307.114 280.003 307.123 280.065C307.131 280.126 307.128 280.189 307.112 280.249C307.096 280.309 307.068 280.365 307.03 280.414C306.992 280.463 306.945 280.504 306.89 280.535L172.356 358.226C172.283 358.266 172.202 358.289 172.119 358.292Z" fill="#455A64"/>
<path d="M155.277 348.588C155.174 348.587 155.074 348.552 154.992 348.489C154.91 348.425 154.852 348.337 154.825 348.237C154.798 348.138 154.805 348.032 154.843 347.936C154.882 347.84 154.952 347.76 155.04 347.707L289.603 270.016C289.657 269.977 289.718 269.95 289.783 269.936C289.848 269.922 289.915 269.922 289.979 269.936C290.044 269.95 290.105 269.977 290.159 270.015C290.213 270.054 290.258 270.104 290.291 270.161C290.324 270.218 290.345 270.282 290.352 270.348C290.36 270.414 290.353 270.48 290.333 270.543C290.313 270.606 290.279 270.665 290.235 270.714C290.191 270.763 290.137 270.803 290.077 270.83L155.514 348.512C155.444 348.56 155.362 348.587 155.277 348.588Z" fill="#455A64"/>
<path d="M138.548 338.827C138.444 338.828 138.343 338.794 138.259 338.732C138.176 338.669 138.116 338.581 138.088 338.481C138.06 338.38 138.066 338.274 138.104 338.177C138.143 338.08 138.213 337.999 138.302 337.946L272.742 260.312C272.851 260.249 272.981 260.232 273.103 260.265C273.224 260.298 273.328 260.378 273.391 260.487C273.453 260.596 273.47 260.726 273.437 260.848C273.404 260.969 273.325 261.073 273.215 261.136L138.776 338.77C138.707 338.811 138.628 338.831 138.548 338.827Z" fill="#455A64"/>
<path d="M121.65 329.16C121.568 329.16 121.487 329.138 121.415 329.096C121.344 329.055 121.285 328.995 121.243 328.924C121.181 328.814 121.163 328.684 121.195 328.562C121.227 328.44 121.306 328.335 121.414 328.27L255.92 250.636C255.973 250.597 256.035 250.57 256.099 250.556C256.164 250.542 256.231 250.542 256.296 250.556C256.361 250.569 256.422 250.596 256.476 250.635C256.529 250.674 256.574 250.724 256.608 250.781C256.641 250.838 256.662 250.902 256.669 250.968C256.676 251.034 256.669 251.1 256.649 251.163C256.629 251.226 256.596 251.284 256.552 251.334C256.508 251.383 256.454 251.423 256.393 251.45L121.887 329.085C121.815 329.127 121.734 329.153 121.65 329.16Z" fill="#455A64"/>
<path d="M104.758 319.503C104.654 319.502 104.554 319.467 104.473 319.404C104.391 319.341 104.332 319.253 104.305 319.153C104.278 319.053 104.285 318.947 104.324 318.852C104.363 318.756 104.432 318.676 104.521 318.623L239.112 240.913C239.222 240.85 239.352 240.833 239.474 240.865C239.596 240.897 239.701 240.975 239.766 241.083C239.825 241.194 239.839 241.324 239.806 241.446C239.772 241.567 239.694 241.671 239.586 241.736L104.956 319.437C104.896 319.475 104.828 319.497 104.758 319.503Z" fill="#455A64"/>
<path d="M239.094 397.431C239.01 397.434 238.928 397.411 238.857 397.365L86.6658 309.61C86.5929 309.568 86.5323 309.509 86.4901 309.436C86.448 309.364 86.4258 309.282 86.4258 309.198C86.4258 309.114 86.448 309.032 86.4901 308.96C86.5323 308.887 86.5929 308.827 86.6658 308.786L221.787 230.792C221.859 230.75 221.941 230.729 222.024 230.729C222.107 230.729 222.189 230.75 222.261 230.792L375.039 318.736C375.111 318.78 375.17 318.841 375.212 318.914C375.253 318.987 375.275 319.069 375.276 319.153C375.276 319.236 375.253 319.317 375.212 319.388C375.17 319.46 375.111 319.519 375.039 319.56L239.331 397.365C239.26 397.409 239.178 397.432 239.094 397.431ZM87.8492 309.203L239.094 396.409L373.846 319.163L222.024 231.748L87.8492 309.203Z" fill="#455A64"/>
<path d="M43.363 287.361V140.736L37.3984 137.299V282.239C37.4027 282.984 37.5669 283.72 37.88 284.396C38.1931 285.073 38.6477 285.674 39.2131 286.16C39.7786 286.645 40.4417 287.004 41.1576 287.211C41.8735 287.418 42.6256 287.469 43.363 287.361Z" fill="#EBEBEB"/>
<path d="M40.0664 286.755L46.2014 290.22V279.408L40.0664 286.755Z" fill="#EBEBEB"/>
<path d="M255.617 8.6252V163.345C255.614 166.135 254.877 168.875 253.482 171.291C252.086 173.707 250.08 175.714 247.665 177.111L51.1741 290.097C50.3827 290.554 49.485 290.794 48.5712 290.795C47.6574 290.795 46.7597 290.554 45.9682 290.098C45.1767 289.641 44.5193 288.984 44.062 288.193C43.6048 287.402 43.3638 286.504 43.3633 285.59V130.833C43.3629 128.042 44.0977 125.3 45.4939 122.884C46.89 120.467 48.8981 118.461 51.3161 117.067L247.807 4.08075C248.601 3.62222 249.502 3.38154 250.419 3.38306C251.336 3.38459 252.236 3.62825 253.029 4.08942C253.822 4.55059 254.478 5.2129 254.933 6.00936C255.387 6.80583 255.624 7.7082 255.617 8.6252Z" fill="#FAFAFA"/>
<path d="M250.401 4.31761C250.964 4.31884 251.522 4.43138 252.042 4.64877C252.562 4.86616 253.034 5.18412 253.431 5.58438C253.827 5.98464 254.141 6.45933 254.354 6.98119C254.567 7.50305 254.674 8.0618 254.671 8.62536V163.345C254.666 165.968 253.972 168.544 252.66 170.815C251.347 173.086 249.461 174.973 247.191 176.287L50.7007 289.273C50.0578 289.651 49.3257 289.851 48.5799 289.851C47.4491 289.851 46.3645 289.402 45.564 288.604C44.7635 287.805 44.3125 286.721 44.31 285.59V130.833C44.3151 128.21 45.0085 125.634 46.3211 123.363C47.6336 121.092 49.5192 119.205 51.7894 117.891L248.28 4.89513C248.924 4.51879 249.655 4.31953 250.401 4.31761ZM250.401 3.37085C249.488 3.3736 248.593 3.61864 247.807 4.08092L51.3161 117.067C48.8981 118.461 46.89 120.467 45.4939 122.884C44.0977 125.3 43.3629 128.042 43.3633 130.833V285.59C43.3638 286.504 43.6048 287.402 44.062 288.193C44.5193 288.984 45.1767 289.641 45.9682 290.098C46.7597 290.554 47.6574 290.795 48.5712 290.795C49.485 290.794 50.3827 290.554 51.1741 290.097L247.665 177.149C250.08 175.752 252.086 173.745 253.482 171.329C254.877 168.913 255.614 166.173 255.617 163.383V8.62536C255.617 7.24182 255.068 5.91495 254.089 4.93664C253.111 3.95833 251.784 3.40872 250.401 3.40872V3.37085Z" fill="#E0E0E0"/>
<path d="M247.2 0.805C246.403 0.29751 245.481 0.0193422 244.536 0.00097266C243.59 -0.0173969 242.658 0.22474 241.842 0.700856L45.3512 113.716C42.9339 115.11 40.9263 117.116 39.5303 119.533C38.1343 121.949 37.399 124.691 37.3984 127.481V137.328L43.363 140.765L249.615 21.6432V7.60274L253.08 4.1376L247.172 0.795532L247.2 0.805Z" fill="#37474F"/>
<path d="M255.617 8.6252V18.1969L43.3633 140.736V130.833C43.3629 128.042 44.0977 125.3 45.4939 122.884C46.89 120.467 48.8981 118.461 51.3161 117.067L247.807 4.08075C248.601 3.62222 249.502 3.38154 250.419 3.38306C251.336 3.38459 252.236 3.62825 253.029 4.08942C253.822 4.55059 254.478 5.2129 254.933 6.00936C255.387 6.80583 255.624 7.7082 255.617 8.6252Z" fill="#37474F"/>
<g style="mix-blend-mode:overlay" opacity="0.5">
<path d="M255.617 8.6252V18.1969L43.3633 140.736V130.833C43.3629 128.042 44.0977 125.3 45.4939 122.884C46.89 120.467 48.8981 118.461 51.3161 117.067L247.807 4.08075C248.601 3.62222 249.502 3.38154 250.419 3.38306C251.336 3.38459 252.236 3.62825 253.029 4.08942C253.822 4.55059 254.478 5.2129 254.933 6.00936C255.387 6.80583 255.624 7.7082 255.617 8.6252Z" fill="white"/>
</g>
<path opacity="0.2" d="M39.4334 119.661C38.0879 122.038 37.3801 124.722 37.3789 127.453V137.299L43.3435 140.736V130.833C43.343 128.117 44.0407 125.447 45.3696 123.079L39.4334 119.661Z" fill="black"/>
<path d="M143.822 211.336C142.271 211.353 140.743 210.961 139.391 210.2C136.21 208.354 134.449 204.519 134.449 199.397C134.449 189.068 141.73 176.457 150.686 171.288C155.117 168.722 159.321 168.334 162.502 170.171C165.683 172.008 167.453 175.851 167.453 180.964C167.453 191.303 160.173 203.913 151.216 209.083C148.99 210.465 146.441 211.242 143.822 211.336ZM158.08 170.105C155.648 170.201 153.282 170.929 151.216 172.216C142.563 177.215 135.529 189.409 135.529 199.397C135.529 204.131 137.091 207.625 139.931 209.272C142.771 210.919 146.558 210.512 150.686 208.155C159.34 203.156 166.374 190.962 166.374 180.964C166.374 176.23 164.812 172.737 161.972 171.099C160.785 170.43 159.442 170.087 158.08 170.105Z" fill="#455A64"/>
<path d="M150.954 213.608C150.811 213.606 150.675 213.548 150.575 213.448C150.474 213.347 150.416 213.211 150.414 213.069V163.894C150.414 163.751 150.471 163.614 150.572 163.512C150.673 163.411 150.811 163.354 150.954 163.354C151.097 163.354 151.234 163.411 151.335 163.512C151.437 163.614 151.493 163.751 151.493 163.894V213.125C151.477 213.258 151.414 213.38 151.314 213.468C151.215 213.557 151.087 213.607 150.954 213.608Z" fill="#37474F"/>
<path d="M129.204 203.383C129.111 203.382 129.019 203.357 128.938 203.311C128.857 203.265 128.789 203.198 128.74 203.118C128.671 202.995 128.654 202.849 128.691 202.713C128.728 202.577 128.817 202.46 128.939 202.389L169.375 179.042C169.436 179.005 169.503 178.981 169.573 178.972C169.643 178.962 169.714 178.966 169.783 178.985C169.851 179.003 169.914 179.036 169.97 179.08C170.025 179.124 170.071 179.179 170.104 179.241C170.14 179.302 170.163 179.369 170.172 179.439C170.181 179.508 170.176 179.579 170.158 179.647C170.139 179.715 170.107 179.778 170.064 179.834C170.021 179.889 169.967 179.935 169.905 179.97L129.469 203.317C129.389 203.363 129.297 203.386 129.204 203.383Z" fill="#37474F"/>
<path d="M132.027 204.964C131.934 204.961 131.843 204.935 131.762 204.889L128.477 202.995L131.478 197.797C131.513 197.735 131.559 197.68 131.615 197.636C131.671 197.592 131.735 197.56 131.804 197.54C131.872 197.521 131.944 197.515 132.015 197.524C132.086 197.532 132.154 197.554 132.216 197.589C132.278 197.624 132.333 197.671 132.377 197.727C132.421 197.783 132.454 197.847 132.473 197.915C132.493 197.984 132.498 198.055 132.49 198.126C132.482 198.197 132.459 198.265 132.425 198.328L129.963 202.597L132.32 203.961C132.443 204.034 132.532 204.152 132.568 204.291C132.603 204.429 132.582 204.576 132.51 204.699C132.462 204.784 132.392 204.854 132.306 204.901C132.221 204.948 132.124 204.97 132.027 204.964Z" fill="#37474F"/>
<path d="M148.169 169.281C148.076 169.278 147.985 169.252 147.904 169.205C147.782 169.134 147.693 169.018 147.656 168.881C147.619 168.745 147.636 168.6 147.705 168.476L150.801 163.118L154.001 164.964C154.127 165.035 154.219 165.154 154.257 165.293C154.295 165.433 154.276 165.581 154.205 165.707C154.133 165.832 154.015 165.924 153.875 165.963C153.736 166.001 153.587 165.982 153.462 165.911L151.189 164.604L148.643 169.025C148.592 169.104 148.521 169.169 148.439 169.214C148.356 169.259 148.263 169.282 148.169 169.281Z" fill="#37474F"/>
<path d="M193.112 151.955L185.33 156.452C184.818 156.746 184.383 156.452 184.383 155.752V147.098C184.39 146.75 184.48 146.407 184.644 146.1C184.809 145.792 185.044 145.528 185.33 145.328L193.112 140.831C193.623 140.537 194.059 140.831 194.059 141.531V150.194C194.051 150.542 193.961 150.882 193.796 151.188C193.632 151.494 193.397 151.757 193.112 151.955Z" fill="#37474F"/>
<path d="M207.864 143.311L200.072 147.799C199.57 148.092 199.125 147.799 199.125 147.098V138.445C199.134 138.096 199.224 137.755 199.388 137.447C199.553 137.14 199.787 136.875 200.072 136.674L207.864 132.177C208.375 131.884 208.81 132.177 208.81 132.878V141.541C208.805 141.89 208.716 142.233 208.551 142.541C208.386 142.848 208.151 143.113 207.864 143.311Z" fill="#37474F"/>
<path d="M193.112 168.523L185.33 173.021C184.818 173.314 184.383 173.021 184.383 172.32V163.657C184.391 163.31 184.481 162.969 184.645 162.663C184.81 162.357 185.044 162.094 185.33 161.896L193.112 157.399C193.623 157.106 194.059 157.399 194.059 158.1V166.734C194.054 167.086 193.966 167.432 193.802 167.743C193.637 168.054 193.401 168.322 193.112 168.523Z" fill="#37474F"/>
<path d="M207.864 159.88L200.072 164.377C199.57 164.67 199.125 164.377 199.125 163.676V155.013C199.134 154.666 199.224 154.326 199.388 154.02C199.553 153.714 199.787 153.451 200.072 153.252L207.864 148.746C208.375 148.452 208.81 148.746 208.81 149.446V158.1C208.805 158.45 208.716 158.794 208.551 159.104C208.387 159.413 208.151 159.679 207.864 159.88Z" fill="#37474F"/>
<path d="M193.112 185.082L185.33 189.579C184.818 189.873 184.383 189.579 184.383 188.879V180.225C184.39 179.877 184.48 179.534 184.644 179.227C184.809 178.919 185.044 178.655 185.33 178.455L193.112 173.958C193.623 173.664 194.059 173.958 194.059 174.658V183.321C194.051 183.669 193.961 184.009 193.796 184.315C193.632 184.621 193.397 184.884 193.112 185.082Z" fill="#37474F"/>
<path d="M207.864 176.438L200.072 180.936C199.57 181.229 199.125 180.936 199.125 180.244V171.582C199.134 171.233 199.224 170.891 199.388 170.584C199.553 170.277 199.787 170.012 200.072 169.811L207.864 165.314C208.375 165.02 208.81 165.314 208.81 166.015V174.677C208.803 175.025 208.714 175.366 208.549 175.672C208.384 175.978 208.149 176.241 207.864 176.438Z" fill="#37474F"/>
<path d="M222.614 134.667L214.822 139.165C214.311 139.458 213.875 139.165 213.875 138.473V129.811C213.882 129.462 213.972 129.12 214.136 128.812C214.301 128.504 214.536 128.24 214.822 128.04L222.614 123.552C223.115 123.249 223.56 123.552 223.56 124.244V132.906C223.552 133.254 223.461 133.594 223.297 133.9C223.132 134.206 222.898 134.469 222.614 134.667Z" fill="#37474F"/>
<path d="M222.614 151.236L214.822 155.733C214.311 156.026 213.875 155.733 213.875 155.032V146.369C213.882 146.022 213.972 145.681 214.136 145.375C214.301 145.069 214.536 144.806 214.822 144.608L222.614 140.111C223.115 139.818 223.56 140.111 223.56 140.812V149.475C223.55 149.822 223.459 150.161 223.295 150.467C223.131 150.773 222.897 151.036 222.614 151.236Z" fill="#37474F"/>
<path d="M222.614 167.804L214.822 172.292C214.311 172.585 213.875 172.292 213.875 171.601V162.947C213.882 162.598 213.972 162.256 214.136 161.949C214.301 161.641 214.536 161.376 214.822 161.177L222.614 156.689C223.115 156.386 223.56 156.689 223.56 157.38V166.043C223.549 166.39 223.457 166.729 223.293 167.034C223.129 167.34 222.896 167.603 222.614 167.804Z" fill="#37474F"/>
<path d="M237.354 126.023L229.572 130.511C229.061 130.805 228.625 130.511 228.625 129.82V121.157C228.634 120.809 228.724 120.467 228.888 120.16C229.053 119.852 229.287 119.587 229.572 119.387L237.354 114.899C237.865 114.596 238.301 114.899 238.301 115.59V124.253C238.292 124.602 238.202 124.943 238.038 125.251C237.873 125.558 237.639 125.823 237.354 126.023Z" fill="#37474F"/>
<path d="M237.354 142.592L229.572 147.089C229.061 147.382 228.625 147.089 228.625 146.388V137.725C228.634 137.378 228.724 137.038 228.888 136.732C229.053 136.426 229.287 136.163 229.572 135.964L237.354 131.467C237.865 131.174 238.301 131.467 238.301 132.168V140.831C238.293 141.178 238.203 141.519 238.038 141.825C237.874 142.131 237.639 142.393 237.354 142.592Z" fill="#37474F"/>
<path opacity="0.2" d="M193.112 168.523L185.33 173.021C184.818 173.314 184.383 173.021 184.383 172.32V163.657C184.391 163.31 184.481 162.969 184.645 162.663C184.81 162.357 185.044 162.094 185.33 161.896L193.112 157.399C193.623 157.106 194.059 157.399 194.059 158.1V166.734C194.054 167.086 193.966 167.432 193.802 167.743C193.637 168.054 193.401 168.322 193.112 168.523Z" fill="black"/>
<path opacity="0.2" d="M207.864 159.88L200.072 164.377C199.57 164.67 199.125 164.377 199.125 163.676V155.013C199.134 154.666 199.224 154.326 199.388 154.02C199.553 153.714 199.787 153.451 200.072 153.252L207.864 148.746C208.375 148.452 208.81 148.746 208.81 149.446V158.1C208.805 158.45 208.716 158.794 208.551 159.104C208.387 159.413 208.151 159.679 207.864 159.88Z" fill="black"/>
<path opacity="0.2" d="M222.614 151.236L214.822 155.733C214.311 156.026 213.875 155.733 213.875 155.032V146.369C213.882 146.022 213.972 145.681 214.136 145.375C214.301 145.069 214.536 144.806 214.822 144.608L222.614 140.111C223.115 139.818 223.56 140.111 223.56 140.812V149.475C223.55 149.822 223.459 150.161 223.295 150.467C223.131 150.773 222.897 151.036 222.614 151.236Z" fill="black"/>
<path opacity="0.2" d="M237.354 142.592L229.572 147.089C229.061 147.382 228.625 147.089 228.625 146.388V137.725C228.634 137.378 228.724 137.038 228.888 136.732C229.053 136.426 229.287 136.163 229.572 135.964L237.354 131.467C237.865 131.174 238.301 131.467 238.301 132.168V140.831C238.293 141.178 238.203 141.519 238.038 141.825C237.874 142.131 237.639 142.393 237.354 142.592Z" fill="black"/>
<path d="M237.354 159.16L229.572 163.648C229.061 163.951 228.625 163.648 228.625 162.957V154.294C228.634 153.945 228.724 153.604 228.888 153.296C229.053 152.989 229.287 152.724 229.572 152.523L237.354 148.036C237.865 147.742 238.301 148.036 238.301 148.727V157.39C238.292 157.738 238.202 158.08 238.038 158.387C237.873 158.695 237.639 158.959 237.354 159.16Z" fill="#37474F"/>
<path opacity="0.3" d="M193.112 185.082L185.33 189.579C184.818 189.873 184.383 189.579 184.383 188.879V180.225C184.39 179.877 184.48 179.534 184.644 179.227C184.809 178.919 185.044 178.655 185.33 178.455L193.112 173.958C193.623 173.664 194.059 173.958 194.059 174.658V183.321C194.051 183.669 193.961 184.009 193.796 184.315C193.632 184.621 193.397 184.884 193.112 185.082Z" fill="black"/>
<path opacity="0.3" d="M207.864 176.438L200.072 180.936C199.57 181.229 199.125 180.936 199.125 180.244V171.582C199.134 171.233 199.224 170.891 199.388 170.584C199.553 170.277 199.787 170.012 200.072 169.811L207.864 165.314C208.375 165.02 208.81 165.314 208.81 166.015V174.677C208.803 175.025 208.714 175.366 208.549 175.672C208.384 175.978 208.149 176.241 207.864 176.438Z" fill="black"/>
<path opacity="0.3" d="M222.614 167.804L214.822 172.292C214.311 172.585 213.875 172.292 213.875 171.601V162.947C213.882 162.598 213.972 162.256 214.136 161.949C214.301 161.641 214.536 161.376 214.822 161.177L222.614 156.689C223.115 156.386 223.56 156.689 223.56 157.38V166.043C223.549 166.39 223.457 166.729 223.293 167.034C223.129 167.34 222.896 167.603 222.614 167.804Z" fill="black"/>
<path opacity="0.3" d="M237.354 159.16L229.572 163.648C229.061 163.951 228.625 163.648 228.625 162.957V154.294C228.634 153.945 228.724 153.604 228.888 153.296C229.053 152.989 229.287 152.724 229.572 152.523L237.354 148.036C237.865 147.742 238.301 148.036 238.301 148.727V157.39C238.292 157.738 238.202 158.08 238.038 158.387C237.873 158.695 237.639 158.959 237.354 159.16Z" fill="black"/>
<path d="M103.748 179.203L65.6505 201.206C63.1511 202.645 61.125 201.111 61.125 197.788V155.373C61.125 152.04 63.1511 148.178 65.6505 146.739L103.748 124.736C106.248 123.297 108.274 124.821 108.274 128.154V170.54C108.274 173.892 106.248 177.764 103.748 179.203Z" fill="#455A64"/>
<path d="M92.0922 149.891L72.125 161.413L77.3038 153.016L97.2709 141.494L92.0922 149.891Z" fill="#37474F"/>
<path opacity="0.2" d="M92.0922 149.891L72.125 161.413L77.3038 153.016L97.2709 141.494L92.0922 149.891Z" fill="white"/>
<path d="M92.0922 172.945L72.125 184.476V161.413L92.0922 149.891V172.945Z" fill="#37474F"/>
<path d="M92.0938 149.891L97.2724 141.494V164.547L92.0938 172.945V149.891Z" fill="#37474F"/>
<path opacity="0.2" d="M92.0938 149.891L97.2724 141.494V164.547L92.0938 172.945V149.891Z" fill="black"/>
<path d="M168.361 141.901L130.264 163.894C127.764 165.333 125.738 163.809 125.738 160.476V118.099C125.738 114.766 127.764 110.904 130.264 109.455L168.361 87.4618C170.861 86.0132 172.887 87.547 172.887 90.8796V133.257C172.925 136.589 170.861 140.452 168.361 141.901Z" fill="#455A64"/>
<path d="M156.709 112.579L136.742 124.111L141.921 115.713L161.888 104.191L156.709 112.579Z" fill="#37474F"/>
<path d="M156.709 135.643L136.742 147.165V124.111L156.709 112.579V135.643Z" fill="#37474F"/>
<path d="M156.707 112.579L161.886 104.191V127.245L156.707 135.643V112.579Z" fill="#37474F"/>
<path opacity="0.2" d="M156.707 112.579L161.886 104.191V127.245L156.707 135.643V112.579Z" fill="black"/>
<path opacity="0.2" d="M136.742 124.111L141.921 115.713V138.767L136.742 147.165V124.111Z" fill="black"/>
<path opacity="0.3" d="M156.709 135.643L136.742 147.165L141.921 138.767L161.888 127.245L156.709 135.643Z" fill="black"/>
<path opacity="0.2" d="M156.709 112.579L136.742 124.111L141.921 115.713L161.888 104.191L156.709 112.579Z" fill="white"/>
<path d="M232.979 104.589L194.881 126.591C192.382 128.031 190.355 126.497 190.355 123.174V80.7873C190.355 77.4642 192.382 73.592 194.881 72.1529L232.979 50.1502C235.478 48.7111 237.504 50.2449 237.504 53.568V95.9544C237.504 99.2776 235.478 103.15 232.979 104.589Z" fill="#455A64"/>
<path d="M201.329 87.2063C201.276 87.2076 201.223 87.1972 201.174 87.176C201.125 87.1547 201.081 87.1231 201.045 87.0832C200.993 87.0154 200.965 86.9321 200.965 86.8465C200.965 86.7609 200.993 86.6777 201.045 86.6098L206.224 78.2121C206.256 78.157 206.302 78.1112 206.357 78.0795L226.324 66.548C226.4 66.508 226.487 66.4938 226.572 66.5075C226.657 66.5212 226.735 66.562 226.795 66.6239C226.854 66.6857 226.892 66.7653 226.903 66.8506C226.914 66.9359 226.897 67.0224 226.854 67.0971L221.675 75.4949C221.638 75.5459 221.594 75.5906 221.543 75.6274L201.576 87.1495C201.502 87.1947 201.415 87.2146 201.329 87.2063ZM206.783 78.6855L202.475 85.6915L221.013 74.9836L225.33 67.9776L206.783 78.6855Z" fill="#37474F"/>
<path d="M201.33 110.25C201.261 110.248 201.193 110.232 201.131 110.203C201.073 110.167 201.026 110.116 200.993 110.057C200.96 109.997 200.942 109.93 200.941 109.862V86.8086C200.941 86.7403 200.958 86.6731 200.991 86.6134C201.025 86.5537 201.073 86.5036 201.131 86.4678L221.126 74.8984C221.188 74.866 221.256 74.8491 221.325 74.8491C221.394 74.8491 221.463 74.866 221.524 74.8984C221.582 74.9348 221.629 74.9851 221.662 75.0447C221.695 75.1042 221.713 75.1711 221.713 75.2392V98.2928C221.714 98.3611 221.696 98.4283 221.663 98.488C221.63 98.5477 221.582 98.5979 221.524 98.6336L201.557 110.165C201.489 110.212 201.411 110.241 201.33 110.25ZM201.718 87.0264V109.19L220.909 98.1129V75.9493L201.718 87.0264Z" fill="#37474F"/>
<path d="M206.537 101.853C206.468 101.85 206.4 101.834 206.338 101.805C206.279 101.77 206.231 101.72 206.197 101.66C206.164 101.601 206.147 101.533 206.149 101.464V78.4109C206.146 78.3422 206.163 78.2742 206.196 78.2142C206.229 78.1542 206.278 78.1043 206.338 78.07L226.305 66.5385C226.365 66.5062 226.431 66.4893 226.499 66.4893C226.567 66.4893 226.634 66.5062 226.693 66.5385C226.753 66.5731 226.803 66.6227 226.838 66.6825C226.873 66.7423 226.892 66.8101 226.892 66.8793V89.9329C226.893 90.0023 226.874 90.0706 226.839 90.1305C226.804 90.1904 226.754 90.2399 226.693 90.2738L206.726 101.805C206.667 101.835 206.603 101.851 206.537 101.853ZM206.925 78.6381V100.792L226.116 89.7152V67.5515L206.925 78.6381Z" fill="#37474F"/>
<path d="M221.323 98.7189H221.21C221.127 98.6959 221.055 98.6463 221.003 98.5778C220.952 98.5093 220.925 98.4258 220.926 98.3402V75.2771C220.926 75.2038 220.945 75.1319 220.983 75.0688L226.161 66.6805C226.203 66.6062 226.269 66.5486 226.349 66.5176C226.428 66.4865 226.516 66.4839 226.597 66.5101C226.678 66.5326 226.749 66.5808 226.8 66.6474C226.852 66.714 226.88 66.7954 226.881 66.8793V89.9329C226.881 90.0062 226.861 90.0782 226.824 90.1412L221.655 98.5674C221.616 98.6172 221.565 98.657 221.508 98.6833C221.45 98.7097 221.387 98.7219 221.323 98.7189ZM221.712 75.3907V96.9579L226.114 89.8288V68.2711L221.712 75.3907Z" fill="#37474F"/>
<path d="M201.33 110.25C201.257 110.249 201.186 110.23 201.122 110.194C201.036 110.137 200.974 110.049 200.951 109.949C200.928 109.848 200.946 109.742 200.999 109.654L206.178 101.256C206.233 101.168 206.321 101.106 206.422 101.083C206.523 101.06 206.63 101.078 206.718 101.133C206.805 101.188 206.868 101.276 206.891 101.377C206.914 101.479 206.896 101.585 206.841 101.673L201.662 110.071C201.626 110.126 201.577 110.171 201.519 110.202C201.461 110.234 201.396 110.25 201.33 110.25Z" fill="#37474F"/>
<path d="M103.748 203.838L65.6505 225.84C63.1511 227.279 61.125 225.755 61.125 222.423C61.125 219.099 63.1511 215.227 65.6505 213.788L103.748 191.785C106.248 190.346 108.274 191.88 108.274 195.203C108.274 198.536 106.248 202.399 103.748 203.838Z" fill="#37474F"/>
<path d="M103.748 221.41L65.6505 243.422C63.1511 244.861 61.125 243.327 61.125 240.004C61.125 236.671 63.1511 232.809 65.6505 231.369L103.748 209.338C106.248 207.899 108.274 209.424 108.274 212.756C108.274 216.108 106.248 219.97 103.748 221.41Z" fill="#37474F"/>
<path d="M103.748 238.981L65.6505 260.984C63.1511 262.423 61.125 260.889 61.125 257.566C61.125 254.234 63.1511 250.371 65.6505 248.922L103.748 226.929C106.248 225.481 108.274 227.014 108.274 230.347C108.274 233.67 106.248 237.542 103.748 238.981Z" fill="#37474F"/>
<path d="M371.049 248.667C371.049 248.667 373.576 252.293 372.137 254.802C371.546 255.817 370.738 256.69 369.77 257.358C368.54 258.251 367.43 259.297 366.466 260.473C363.882 263.597 358.646 268.852 353.638 267.271C346.613 265.046 354.272 259.375 354.272 259.375L371.049 248.667Z" fill="#263238"/>
<path d="M362.167 239.985L363.113 248.667L357.527 256.515L354.242 259.356C354.242 259.356 356.297 264.733 362.697 257.831C367.431 252.691 371.019 248.648 371.019 248.648V239.966L362.167 239.985Z" fill="#FFA8A7"/>
<path d="M340.853 242.106C340.853 242.106 343.116 245.893 341.506 248.307C340.839 249.274 339.97 250.085 338.96 250.683C337.667 251.473 336.483 252.427 335.438 253.524C332.645 256.459 327.049 261.325 322.183 259.394C315.338 256.676 323.376 251.564 323.376 251.564L340.853 242.106Z" fill="#263238"/>
<path d="M332.608 232.818L332.93 241.528L326.804 248.951L323.32 251.573C323.32 251.573 324.987 257.083 331.841 250.627C336.973 245.836 340.797 242.058 340.797 242.058L341.422 233.405L332.608 232.818Z" fill="#FFA8A7"/>
<path d="M335.069 130.028L329.597 184.391C329.582 184.596 329.582 184.802 329.597 185.007L331.784 236.671C331.784 236.671 336.158 239.512 342.681 236.671C342.681 236.671 347.311 204.074 344.944 190.716C344.758 189.697 344.816 188.649 345.114 187.657C347.386 180.377 356.797 149.787 357.573 140.206L335.069 130.028Z" fill="#455A64"/>
<path d="M352.813 150.09L338.508 140.84C338.508 140.84 339.208 147.136 346.423 152.817L349.481 173.276C351.289 167.103 353.268 160.022 354.849 153.83L352.813 150.09Z" fill="#37474F"/>
<path d="M337.228 130.028C337.465 130.246 333.441 145.972 348.532 150.554L353.171 191.88L361.436 243.308C361.436 243.308 367.477 245.552 371.482 241.661C371.482 241.661 374.057 207.577 368.973 191.549C368.558 190.28 368.441 188.932 368.632 187.61C369.986 178.786 374.748 144.163 368.149 131.818L337.228 130.028Z" fill="#455A64"/>
<path d="M368.803 60.7915L376.888 95.727C377.408 97.9794 377.116 100.343 376.064 102.402C375.455 103.59 374.609 104.642 373.578 105.491C372.547 106.341 371.354 106.971 370.071 107.342C368.788 107.714 367.442 107.819 366.117 107.652C364.792 107.484 363.515 107.048 362.365 106.369L344.168 95.6228V60.7915H368.803Z" fill="#263238"/>
<path d="M345.239 88.3235C343.406 88.1652 341.564 88.4768 339.886 89.2289C338.208 89.981 336.749 91.1488 335.648 92.6218C332.637 96.5603 321.096 111.557 321.096 111.557C321.096 111.557 304.054 103.036 303.25 102.033C302.445 101.029 302.89 98.984 303.117 97.8668C303.344 96.7497 303.733 94.2407 303.979 93.5401C304.414 92.3188 302.606 92.6502 301.536 93.7958C300.466 94.9413 300.002 97.1757 299.463 97.5828C298.923 97.9899 294.89 93.3129 292.921 91.0691C290.951 88.8253 290.08 87.2821 288.726 88.2288C287.78 88.8915 288.386 90.2265 289.796 92.1484C290.451 92.9647 291.058 93.8182 291.614 94.7047C291.775 95.0455 291.264 95.32 291.055 95.5094C290.677 95.8502 289.995 96.4562 289.948 96.939C289.957 97.2305 289.938 97.5223 289.891 97.81C289.711 98.4538 288.944 98.7568 288.698 99.3816C288.629 99.8549 288.604 100.333 288.622 100.811C288.566 101.114 288.395 101.389 288.338 101.701C288.318 102.005 288.365 102.31 288.474 102.595C288.584 102.879 288.754 103.136 288.973 103.349C290.345 104.996 292.229 105.621 294.038 106.624C295.543 107.458 297.096 107.817 298.828 108.584C300.561 109.351 320.604 123.287 323.832 121.526C327.061 119.765 344.888 101.408 344.888 101.408C349.622 93.5685 345.239 88.3235 345.239 88.3235Z" fill="#E9A5A5"/>
<path d="M343.393 87.0262C343.393 87.0262 339.189 86.5055 334.058 92.6027C328.926 98.6998 326.398 101.834 326.398 101.834C328.874 104.809 331.835 107.345 335.156 109.332L343.393 87.0262Z" fill="#37474F"/>
<path opacity="0.2" d="M343.393 87.0262C343.393 87.0262 339.189 86.5055 334.058 92.6027C328.926 98.6998 326.398 101.834 326.398 101.834C328.874 104.809 331.835 107.345 335.156 109.332L343.393 87.0262Z" fill="black"/>
<path d="M343.393 87.0264L360.804 88.2288C362.852 88.3651 364.762 89.3056 366.119 90.8451C367.476 92.3846 368.169 94.3982 368.047 96.4466C367.637 104.676 365.95 112.792 363.048 120.504C363.048 120.504 367.232 126.762 368.151 131.865C368.151 131.865 363.474 136.286 351.109 136.286C338.744 136.286 335.09 130.076 335.09 130.076L336.851 114.274C334.496 110.553 333.662 106.068 334.522 101.748C336.037 94.7046 343.393 87.0264 343.393 87.0264Z" fill="#37474F"/>
<path d="M363.664 53.2744C363.664 53.2744 364.734 49.2033 365.463 49.2696C366.192 49.3359 366.107 52.9146 366.107 52.9146C366.107 52.9146 369.496 52.6117 369.136 53.5868C368.777 54.562 364.829 55.5561 364.829 55.5561L363.664 53.2744Z" fill="#263238"/>
<path d="M368.954 67.4662C367.401 78.9788 357.716 78.9788 357.716 78.9788L337.379 70.032C336.241 68.8159 335.536 67.2586 335.372 65.6011C335.194 64.3451 335.194 63.0701 335.372 61.8141C336.025 56.9761 339.642 51.769 347.529 50.1689C349.258 49.8208 351.019 49.6526 352.783 49.6671C353.63 49.664 354.477 49.7051 355.32 49.7902C361.465 50.3962 365.735 53.2554 367.789 57.7051C368.248 58.7099 368.588 59.7648 368.802 60.8484C369.22 63.0306 369.272 65.2672 368.954 67.4662Z" fill="#263238"/>
<path d="M357.707 87.9448L347.852 95.623V71.1682H357.707V87.9448Z" fill="#FFA8A7"/>
<path d="M347.852 84.1578C350.044 83.3434 352.049 82.0917 353.743 80.4789C355.437 78.866 356.786 76.9255 357.707 74.7754V71.1682H347.852V84.1578Z" fill="#F28F8F"/>
<path d="M349.973 53.0376C346.233 53.0376 338.281 55.1205 337.362 64.91C336.444 74.6995 337.362 82.283 342.38 83.012C347.398 83.741 359.157 80.0865 360.719 67.4189C362.281 54.7513 353.628 53.0376 349.973 53.0376Z" fill="#FFA8A7"/>
<path d="M344.095 69.0474V74.8226L340.715 73.7812L344.095 69.0474Z" fill="#F28F8F"/>
<path d="M347.85 71.2249C348.498 71.2249 349.024 70.6993 349.024 70.0509C349.024 69.4026 348.498 68.877 347.85 68.877C347.201 68.877 346.676 69.4026 346.676 70.0509C346.676 70.6993 347.201 71.2249 347.85 71.2249Z" fill="#263238"/>
<path d="M341.289 69.2179C341.289 69.4501 341.221 69.6771 341.092 69.8702C340.963 70.0632 340.779 70.2137 340.565 70.3026C340.35 70.3914 340.114 70.4147 339.886 70.3694C339.659 70.3241 339.449 70.2123 339.285 70.0481C339.121 69.8839 339.009 69.6747 338.964 69.447C338.919 69.2192 338.942 68.9832 339.031 68.7687C339.12 68.5542 339.27 68.3708 339.463 68.2418C339.656 68.1128 339.883 68.044 340.115 68.044C340.27 68.0427 340.423 68.0722 340.566 68.1308C340.709 68.1893 340.839 68.2757 340.948 68.385C341.058 68.4943 341.144 68.6242 341.203 68.7672C341.261 68.9102 341.291 69.0634 341.289 69.2179Z" fill="#263238"/>
<path d="M338.688 66.7752L340.988 65.4308C340.988 65.4308 340.108 64.4841 339.227 65.0711C338.977 65.2684 338.792 65.5363 338.695 65.8402C338.599 66.144 338.596 66.4698 338.688 66.7752Z" fill="#263238"/>
<path d="M342.504 77.1612C343.624 77.241 344.738 76.9408 345.666 76.3091C345.666 76.3091 345.884 77.9754 344.492 78.2973C344.081 78.3664 343.658 78.2911 343.295 78.084C342.933 77.877 342.653 77.5509 342.504 77.1612Z" fill="#F28F8F"/>
<path d="M340.504 56.3704C340.504 56.3704 341.915 69.8806 360.282 70.2972C360.282 70.2972 365.83 56.8722 354.866 52.5171C343.903 48.162 340.504 56.3704 340.504 56.3704Z" fill="#263238"/>
<path d="M357.204 70.7895C356.021 72.8345 356.324 75.315 357.971 76.1671C359.031 76.7162 362.156 75.5328 363.33 73.4878C364.504 71.4428 363.85 69.7007 362.241 68.754C360.631 67.8072 358.378 68.7445 357.204 70.7895Z" fill="#FFA8A7"/>
<path d="M347.853 87.3389C347.853 87.3389 341.179 95.623 347.853 95.623C354.528 95.623 357.709 87.9448 357.709 87.9448L347.853 87.3389Z" fill="#FFA8A7"/>
<path d="M381.122 117.825C379.569 111.197 375.527 103.301 373.302 99.4385L363.976 105.365C363.976 105.365 369.411 114.681 371.067 119.065C372.014 124.281 371.598 133.673 370.528 138.795C370.354 139.673 369.862 140.455 369.146 140.992C367.252 142.384 366.589 143.775 365.226 145.498C364.156 146.852 363.209 147.212 363.389 147.629C363.494 147.846 363.64 148.041 363.82 148.202C363.999 148.363 364.209 148.488 364.437 148.568C364.664 148.648 364.906 148.682 365.147 148.669C365.388 148.655 365.624 148.595 365.841 148.49C366.795 148.028 367.686 147.446 368.492 146.758C367.943 148.682 367.096 150.509 365.983 152.173C363.484 155.96 363.493 158.185 368.966 158.062C372.402 157.986 375.015 155.572 377.117 147.155C377.733 144.731 378.935 140.528 379.446 137.422C381.122 127.065 381.595 122.236 381.122 117.825Z" fill="#FFA8A7"/>
<path d="M361.619 88.3235C361.619 88.3235 355.455 94.5721 367.299 112.437C367.299 112.437 374.495 112.04 377.827 106.842L373.046 96.5698C372.004 94.3304 370.404 92.3962 368.399 90.9523C366.395 89.5084 364.054 88.6033 361.6 88.3235H361.619Z" fill="#37474F"/>
<path opacity="0.2" d="M361.619 88.3235C361.619 88.3235 355.455 94.5721 367.299 112.437C367.299 112.437 374.495 112.04 377.827 106.842L373.046 96.5698C372.004 94.3304 370.404 92.3962 368.399 90.9523C366.395 89.5084 364.054 88.6033 361.6 88.3235H361.619Z" fill="black"/>
<path d="M369.693 342.481H344.727V368.924C344.727 370.77 345.948 372.617 348.381 374.027C353.257 376.868 361.162 376.868 366.038 374.027C368.471 372.617 369.693 370.77 369.693 368.924V342.481Z" fill="#37474F"/>
<path opacity="0.4" d="M369.693 342.481H344.727V368.924C344.727 370.77 345.948 372.617 348.381 374.027C353.257 376.868 361.162 376.868 366.038 374.027C368.471 372.617 369.693 370.77 369.693 368.924V342.481Z" fill="black"/>
<path d="M357.205 349.705C364.096 349.705 369.683 346.479 369.683 342.5C369.683 338.521 364.096 335.295 357.205 335.295C350.313 335.295 344.727 338.521 344.727 342.5C344.727 346.479 350.313 349.705 357.205 349.705Z" fill="#37474F"/>
<path d="M379.322 329.151H335.09V339.168C335.09 342.434 337.248 345.7 341.566 348.2C350.21 353.189 364.212 353.189 372.856 348.2C377.173 345.7 379.332 342.434 379.332 339.168L379.322 329.151Z" fill="#37474F"/>
<path opacity="0.2" d="M379.322 329.151H335.09V339.168C335.09 342.434 337.248 345.7 341.566 348.2C350.21 353.189 364.212 353.189 372.856 348.2C377.173 345.7 379.332 342.434 379.332 339.168L379.322 329.151Z" fill="black"/>
<path d="M372.855 338.211C364.211 343.201 350.209 343.201 341.565 338.211C332.921 333.222 332.921 325.137 341.565 320.147C350.209 315.158 364.211 315.158 372.855 320.147C381.499 325.137 381.499 333.222 372.855 338.211Z" fill="#37474F"/>
<path d="M369.693 298.703H344.727V325.155C344.727 326.992 345.948 328.838 348.381 330.249C353.257 333.089 361.162 333.089 366.038 330.249C368.471 328.838 369.693 327.002 369.693 325.155V298.703Z" fill="#37474F"/>
<path opacity="0.2" d="M369.693 298.703H344.727V325.155C344.727 326.992 345.948 328.838 348.381 330.249C353.257 333.089 361.162 333.089 366.038 330.249C368.471 328.838 369.693 327.002 369.693 325.155V298.703Z" fill="black"/>
<path d="M357.205 305.927C364.096 305.927 369.683 302.701 369.683 298.722C369.683 294.743 364.096 291.517 357.205 291.517C350.313 291.517 344.727 294.743 344.727 298.722C344.727 302.701 350.313 305.927 357.205 305.927Z" fill="#37474F"/>
<path d="M312.234 409.474L279.949 390.832V359.002L296.091 349.79L312.234 377.634V409.474Z" fill="#37474F"/>
<path opacity="0.2" d="M312.234 409.474L279.949 390.832V359.002L296.091 349.79L312.234 377.634V409.474Z" fill="white"/>
<path d="M312.232 377.634L296.09 349.79L317.42 337.463L333.563 365.317L312.232 377.634Z" fill="#37474F"/>
<path d="M312.234 409.474V377.634L333.565 365.317V397.157L312.234 409.474Z" fill="#37474F"/>
<path opacity="0.2" d="M312.234 409.474V377.634L333.565 365.317V397.157L312.234 409.474Z" fill="black"/>
<path d="M223.349 315.934L147.523 242.409L160.475 191L236.301 264.525L223.349 315.934Z" fill="#37474F"/>
<path d="M316.594 241.67L236.299 264.525L223.348 315.934L303.642 293.079L316.594 241.67Z" fill="#37474F"/>
<path opacity="0.2" d="M316.594 241.67L236.299 264.525L223.348 315.934L303.642 293.079L316.594 241.67Z" fill="black"/>
<path d="M240.771 168.154L160.477 190.999L236.303 264.525L316.597 241.67L240.771 168.154Z" fill="#37474F"/>
<path opacity="0.2" d="M240.771 168.154L160.477 190.999L236.303 264.525L316.597 241.67L240.771 168.154Z" fill="white"/>
<path d="M282.455 192.174L211.306 174.251L203.221 206.498C201.895 211.752 204.045 217.859 209.981 223.644C221.853 235.166 244.376 240.837 260.292 236.311C268.244 234.058 273.044 229.684 274.36 224.42L282.455 192.174Z" fill="#37474F"/>
<path opacity="0.2" d="M282.455 192.174L211.306 174.251L203.221 206.498C201.895 211.752 204.045 217.859 209.981 223.644C221.853 235.166 244.376 240.837 260.292 236.311C268.244 234.058 273.044 229.684 274.36 224.42L282.455 192.174Z" fill="black"/>
<path d="M282.441 192.231C285.299 180.888 271.691 167.682 252.049 162.733C232.406 157.785 214.166 162.968 211.309 174.311C208.451 185.653 222.058 198.859 241.701 203.808C261.344 208.756 279.584 203.573 282.441 192.231Z" fill="#37474F"/>
</g>
<defs>
<clipPath id="clip0_5463_79808">
<rect width="450" height="432" fill="white"/>
</clipPath>
</defs>
</svg>
