<svg width="32" height="33" viewBox="0 0 32 33" fill="none" xmlns="http://www.w3.org/2000/svg">
<g id="circle-x-filled">
<path id="Vector" d="M22.6667 4.77847C24.6778 5.93961 26.3507 7.60583 27.5198 9.6122C28.689 11.6186 29.3139 13.8955 29.3327 16.2176C29.3514 18.5397 28.7634 20.8264 27.6268 22.8514C26.4902 24.8764 24.8444 26.5694 22.8524 27.7629C20.8604 28.9564 18.5912 29.6089 16.2695 29.6559C13.9479 29.7029 11.6541 29.1427 9.61549 28.0308C7.57683 26.9189 5.86391 25.2938 4.6463 23.3165C3.4287 21.3391 2.74863 19.0781 2.67341 16.7571L2.66675 16.3251L2.67341 15.8931C2.74809 13.5905 3.41815 11.3464 4.61827 9.37979C5.81839 7.41317 7.50762 5.79107 9.52127 4.67164C11.5349 3.55222 13.8043 2.97366 16.1081 2.99238C18.4119 3.01111 20.6716 3.62646 22.6667 4.77847ZM14.0147 12.5118C13.7354 12.3455 13.4049 12.287 13.0854 12.3473C12.766 12.4076 12.4795 12.5826 12.28 12.8392C12.0805 13.0959 11.9816 13.4167 12.002 13.7411C12.0224 14.0656 12.1607 14.3714 12.3907 14.6011L14.1134 16.3251L12.3907 18.0491L12.2801 18.1745C12.0729 18.4425 11.9754 18.7793 12.0075 19.1165C12.0397 19.4537 12.199 19.7661 12.453 19.9901C12.7071 20.2142 13.037 20.3331 13.3756 20.3228C13.7142 20.3124 14.0361 20.1736 14.2761 19.9345L16.0001 18.2118L17.7241 19.9345L17.8494 20.0451C18.1174 20.2523 18.4542 20.3498 18.7915 20.3177C19.1287 20.2855 19.441 20.1263 19.6651 19.8722C19.8891 19.6181 20.0081 19.2882 19.9977 18.9496C19.9874 18.611 19.8485 18.2891 19.6094 18.0491L17.8867 16.3251L19.6094 14.6011L19.7201 14.4758C19.9273 14.2078 20.0247 13.871 19.9926 13.5338C19.9605 13.1965 19.8012 12.8842 19.5471 12.6601C19.293 12.4361 18.9632 12.3172 18.6246 12.3275C18.286 12.3378 17.964 12.4767 17.7241 12.7158L16.0001 14.4385L14.2761 12.7158L14.1507 12.6051L14.0147 12.5118Z" fill="#06337E"/>
</g>
</svg>
