<svg width="24" height="24" viewBox="0 0 24 24" fill="none" xmlns="http://www.w3.org/2000/svg">
<g id="calendar3" clip-path="url(#clip0_145_8678)">
<path id="Vector" d="M21 0H3C2.20435 0 1.44129 0.316071 0.87868 0.87868C0.316071 1.44129 0 2.20435 0 3L0 21C0 21.7956 0.316071 22.5587 0.87868 23.1213C1.44129 23.6839 2.20435 24 3 24H21C21.7956 24 22.5587 23.6839 23.1213 23.1213C23.6839 22.5587 24 21.7956 24 21V3C24 2.20435 23.6839 1.44129 23.1213 0.87868C22.5587 0.316071 21.7956 0 21 0V0ZM1.5 5.7855C1.5 5.076 2.172 4.5 3 4.5H21C21.828 4.5 22.5 5.076 22.5 5.7855V21.2145C22.5 21.924 21.828 22.5 21 22.5H3C2.172 22.5 1.5 21.924 1.5 21.2145V5.7855Z" fill="#545454"/>
<path id="Vector_2" d="M10 11C10.3978 11 10.7794 10.842 11.0607 10.5607C11.342 10.2794 11.5 9.89782 11.5 9.5C11.5 9.10218 11.342 8.72064 11.0607 8.43934C10.7794 8.15804 10.3978 8 10 8C9.60218 8 9.22064 8.15804 8.93934 8.43934C8.65804 8.72064 8.5 9.10218 8.5 9.5C8.5 9.89782 8.65804 10.2794 8.93934 10.5607C9.22064 10.842 9.60218 11 10 11ZM14.5 11C14.8978 11 15.2794 10.842 15.5607 10.5607C15.842 10.2794 16 9.89782 16 9.5C16 9.10218 15.842 8.72064 15.5607 8.43934C15.2794 8.15804 14.8978 8 14.5 8C14.1022 8 13.7206 8.15804 13.4393 8.43934C13.158 8.72064 13 9.10218 13 9.5C13 9.89782 13.158 10.2794 13.4393 10.5607C13.7206 10.842 14.1022 11 14.5 11ZM19 11C19.3978 11 19.7794 10.842 20.0607 10.5607C20.342 10.2794 20.5 9.89782 20.5 9.5C20.5 9.10218 20.342 8.72064 20.0607 8.43934C19.7794 8.15804 19.3978 8 19 8C18.6022 8 18.2206 8.15804 17.9393 8.43934C17.658 8.72064 17.5 9.10218 17.5 9.5C17.5 9.89782 17.658 10.2794 17.9393 10.5607C18.2206 10.842 18.6022 11 19 11ZM5.5 15.5C5.89782 15.5 6.27936 15.342 6.56066 15.0607C6.84196 14.7794 7 14.3978 7 14C7 13.6022 6.84196 13.2206 6.56066 12.9393C6.27936 12.658 5.89782 12.5 5.5 12.5C5.10218 12.5 4.72064 12.658 4.43934 12.9393C4.15804 13.2206 4 13.6022 4 14C4 14.3978 4.15804 14.7794 4.43934 15.0607C4.72064 15.342 5.10218 15.5 5.5 15.5ZM10 15.5C10.3978 15.5 10.7794 15.342 11.0607 15.0607C11.342 14.7794 11.5 14.3978 11.5 14C11.5 13.6022 11.342 13.2206 11.0607 12.9393C10.7794 12.658 10.3978 12.5 10 12.5C9.60218 12.5 9.22064 12.658 8.93934 12.9393C8.65804 13.2206 8.5 13.6022 8.5 14C8.5 14.3978 8.65804 14.7794 8.93934 15.0607C9.22064 15.342 9.60218 15.5 10 15.5ZM14.5 15.5C14.8978 15.5 15.2794 15.342 15.5607 15.0607C15.842 14.7794 16 14.3978 16 14C16 13.6022 15.842 13.2206 15.5607 12.9393C15.2794 12.658 14.8978 12.5 14.5 12.5C14.1022 12.5 13.7206 12.658 13.4393 12.9393C13.158 13.2206 13 13.6022 13 14C13 14.3978 13.158 14.7794 13.4393 15.0607C13.7206 15.342 14.1022 15.5 14.5 15.5ZM19 15.5C19.3978 15.5 19.7794 15.342 20.0607 15.0607C20.342 14.7794 20.5 14.3978 20.5 14C20.5 13.6022 20.342 13.2206 20.0607 12.9393C19.7794 12.658 19.3978 12.5 19 12.5C18.6022 12.5 18.2206 12.658 17.9393 12.9393C17.658 13.2206 17.5 13.6022 17.5 14C17.5 14.3978 17.658 14.7794 17.9393 15.0607C18.2206 15.342 18.6022 15.5 19 15.5ZM5.5 20C5.89782 20 6.27936 19.842 6.56066 19.5607C6.84196 19.2794 7 18.8978 7 18.5C7 18.1022 6.84196 17.7206 6.56066 17.4393C6.27936 17.158 5.89782 17 5.5 17C5.10218 17 4.72064 17.158 4.43934 17.4393C4.15804 17.7206 4 18.1022 4 18.5C4 18.8978 4.15804 19.2794 4.43934 19.5607C4.72064 19.842 5.10218 20 5.5 20ZM10 20C10.3978 20 10.7794 19.842 11.0607 19.5607C11.342 19.2794 11.5 18.8978 11.5 18.5C11.5 18.1022 11.342 17.7206 11.0607 17.4393C10.7794 17.158 10.3978 17 10 17C9.60218 17 9.22064 17.158 8.93934 17.4393C8.65804 17.7206 8.5 18.1022 8.5 18.5C8.5 18.8978 8.65804 19.2794 8.93934 19.5607C9.22064 19.842 9.60218 20 10 20ZM14.5 20C14.8978 20 15.2794 19.842 15.5607 19.5607C15.842 19.2794 16 18.8978 16 18.5C16 18.1022 15.842 17.7206 15.5607 17.4393C15.2794 17.158 14.8978 17 14.5 17C14.1022 17 13.7206 17.158 13.4393 17.4393C13.158 17.7206 13 18.1022 13 18.5C13 18.8978 13.158 19.2794 13.4393 19.5607C13.7206 19.842 14.1022 20 14.5 20Z" fill="#545454"/>
</g>
<defs>
<clipPath id="clip0_145_8678">
<rect width="24" height="24" fill="white"/>
</clipPath>
</defs>
</svg>
