<svg width="12" height="13" viewBox="0 0 12 13" fill="none" xmlns="http://www.w3.org/2000/svg">
<g id="caret-down-fill">
<path id="Vector" d="M5.28401 8.855L1.68701 4.7435C1.26251 4.25975 1.60751 3.5 2.25176 3.5H9.44576C9.58995 3.49988 9.73111 3.54132 9.85235 3.61936C9.97358 3.6974 10.0698 3.80873 10.1293 3.94002C10.1889 4.07131 10.2094 4.217 10.1883 4.35963C10.1673 4.50227 10.1055 4.6358 10.0105 4.74425L6.41351 8.85425C6.34312 8.93481 6.2563 8.99937 6.15889 9.04361C6.06149 9.08785 5.95574 9.11073 5.84876 9.11073C5.74178 9.11073 5.63604 9.08785 5.53863 9.04361C5.44122 8.99937 5.35441 8.93481 5.28401 8.85425V8.855Z" fill="#545454"/>
</g>
</svg>
