<svg width="16" height="17" viewBox="0 0 16 17" fill="none" xmlns="http://www.w3.org/2000/svg">
<g id="chevron-right">
<path id="Vector" fill-rule="evenodd" clip-rule="evenodd" d="M4.81291 1.56437C4.85935 1.51781 4.91453 1.48087 4.97528 1.45566C5.03602 1.43046 5.10114 1.41748 5.16691 1.41748C5.23268 1.41748 5.2978 1.43046 5.35854 1.45566C5.41929 1.48087 5.47446 1.51781 5.52091 1.56437L11.5209 7.56437C11.5675 7.61082 11.6044 7.666 11.6296 7.72674C11.6548 7.78749 11.6678 7.85261 11.6678 7.91837C11.6678 7.98414 11.6548 8.04926 11.6296 8.11001C11.6044 8.17075 11.5675 8.22593 11.5209 8.27237L5.52091 14.2724C5.42702 14.3663 5.29969 14.419 5.16691 14.419C5.03413 14.419 4.9068 14.3663 4.81291 14.2724C4.71902 14.1785 4.66628 14.0511 4.66628 13.9184C4.66628 13.7856 4.71902 13.6583 4.81291 13.5644L10.4599 7.91837L4.81291 2.27237C4.76635 2.22593 4.7294 2.17075 4.7042 2.11001C4.67899 2.04926 4.66602 1.98414 4.66602 1.91837C4.66602 1.85261 4.67899 1.78749 4.7042 1.72674C4.7294 1.666 4.76635 1.61082 4.81291 1.56437Z" fill="#06337E"/>
</g>
</svg>
