<svg width="24" height="24" viewBox="0 0 24 24" fill="none" xmlns="http://www.w3.org/2000/svg">
<g id="chevron-down">
<path id="Vector" fill-rule="evenodd" clip-rule="evenodd" d="M2.22034 7.22034C2.29001 7.1505 2.37277 7.09508 2.46389 7.05727C2.55501 7.01946 2.65269 7 2.75134 7C2.84999 7 2.94767 7.01946 3.03879 7.05727C3.12991 7.09508 3.21267 7.1505 3.28234 7.22034L11.7513 15.6908L20.2203 7.22034C20.2901 7.15061 20.3729 7.09529 20.464 7.05756C20.5551 7.01982 20.6527 7.00039 20.7513 7.00039C20.85 7.00039 20.9476 7.01982 21.0387 7.05756C21.1298 7.09529 21.2126 7.15061 21.2823 7.22034C21.3521 7.29007 21.4074 7.37286 21.4451 7.46396C21.4829 7.55507 21.5023 7.65272 21.5023 7.75134C21.5023 7.84996 21.4829 7.94761 21.4451 8.03872C21.4074 8.12983 21.3521 8.21261 21.2823 8.28234L12.2823 17.2823C12.2127 17.3522 12.1299 17.4076 12.0388 17.4454C11.9477 17.4832 11.85 17.5027 11.7513 17.5027C11.6527 17.5027 11.555 17.4832 11.4639 17.4454C11.3728 17.4076 11.29 17.3522 11.2203 17.2823L2.22034 8.28234C2.1505 8.21267 2.09508 8.12991 2.05727 8.03879C2.01946 7.94767 2 7.84999 2 7.75134C2 7.65269 2.01946 7.55501 2.05727 7.46389C2.09508 7.37277 2.1505 7.29001 2.22034 7.22034Z" fill="black"/>
</g>
</svg>
