<svg width="16" height="17" viewBox="0 0 16 17" fill="none" xmlns="http://www.w3.org/2000/svg">
<g id="chevron-left">
<path id="Vector" fill-rule="evenodd" clip-rule="evenodd" d="M11.5209 1.56437C11.5675 1.61082 11.6044 1.666 11.6296 1.72674C11.6548 1.78749 11.6678 1.85261 11.6678 1.91837C11.6678 1.98414 11.6548 2.04926 11.6296 2.11001C11.6044 2.17075 11.5675 2.22593 11.5209 2.27237L5.87391 7.91837L11.5209 13.5644C11.6148 13.6583 11.6675 13.7856 11.6675 13.9184C11.6675 14.0511 11.6148 14.1785 11.5209 14.2724C11.427 14.3663 11.2997 14.419 11.1669 14.419C11.0341 14.419 10.9068 14.3663 10.8129 14.2724L4.81291 8.27237C4.76635 8.22593 4.7294 8.17075 4.7042 8.11001C4.67899 8.04926 4.66602 7.98414 4.66602 7.91837C4.66602 7.85261 4.67899 7.78749 4.7042 7.72674C4.7294 7.666 4.76635 7.61082 4.81291 7.56437L10.8129 1.56437C10.8594 1.51781 10.9145 1.48087 10.9753 1.45566C11.036 1.43046 11.1011 1.41748 11.1669 1.41748C11.2327 1.41748 11.2978 1.43046 11.3585 1.45566C11.4193 1.48087 11.4745 1.51781 11.5209 1.56437Z" fill="#06337E"/>
</g>
</svg>
