<svg width="20" height="20" viewBox="0 0 20 20" fill="none" xmlns="http://www.w3.org/2000/svg">
<g id="circle-dot-filled">
<path id="Vector" d="M14.1667 2.78357C15.4236 3.50928 16.4692 4.55067 17.1999 5.80465C17.9307 7.05863 18.3212 8.48171 18.3329 9.93302C18.3447 11.3843 17.9771 12.8135 17.2668 14.0792C16.5564 15.3448 15.5278 16.4029 14.2828 17.1488C13.0378 17.8948 11.6196 18.3026 10.1685 18.332C8.71744 18.3613 7.28387 18.0112 6.00971 17.3163C4.73555 16.6213 3.66497 15.6057 2.90397 14.3698C2.14297 13.134 1.71792 11.7208 1.67091 10.2702L1.66675 10.0002L1.67091 9.73024C1.71758 8.29106 2.13637 6.88854 2.88645 5.6594C3.63652 4.43026 4.69229 3.41645 5.95082 2.7168C7.20936 2.01716 8.6277 1.65557 10.0676 1.66727C11.5075 1.67897 12.9198 2.06357 14.1667 2.78357ZM10.0001 8.33357C9.6018 8.33355 9.21668 8.47616 8.91446 8.73558C8.61225 8.99499 8.41292 9.35405 8.35258 9.74774L8.33758 9.87607L8.33342 10.0002L8.33758 10.1252C8.3619 10.4486 8.48003 10.7579 8.6775 11.0151C8.87496 11.2723 9.14318 11.4664 9.44928 11.5734C9.75539 11.6805 10.0861 11.696 10.4008 11.6179C10.7156 11.5398 11.0007 11.3716 11.2213 11.1339C11.4419 10.8962 11.5883 10.5993 11.6426 10.2796C11.697 9.95987 11.6569 9.63126 11.5273 9.33401C11.3976 9.03676 11.1841 8.78378 10.9128 8.60608C10.6416 8.42838 10.3244 8.33367 10.0001 8.33357Z" fill="#06337E"/>
</g>
</svg>
