<svg width="80" height="80" viewBox="0 0 80 80" fill="none" xmlns="http://www.w3.org/2000/svg">
<g id="circle-chevron-left">
<path id="Vector" d="M43.3333 50L33.3333 40L43.3333 30M70 40C70 36.0603 69.224 32.1593 67.7164 28.5195C66.2087 24.8797 63.999 21.5726 61.2132 18.7868C58.4274 16.001 55.1203 13.7913 51.4805 12.2836C47.8407 10.776 43.9397 10 40 10C36.0603 10 32.1593 10.776 28.5195 12.2836C24.8797 13.7913 21.5726 16.001 18.7868 18.7868C16.001 21.5726 13.7913 24.8797 12.2836 28.5195C10.776 32.1593 10 36.0603 10 40C10 47.9565 13.1607 55.5871 18.7868 61.2132C24.4129 66.8393 32.0435 70 40 70C47.9565 70 55.5871 66.8393 61.2132 61.2132C66.8393 55.5871 70 47.9565 70 40Z" stroke="#1C1C1C" stroke-width="2" stroke-linecap="round" stroke-linejoin="round"/>
</g>
</svg>
