<svg width="20" height="20" viewBox="0 0 20 20" fill="none" xmlns="http://www.w3.org/2000/svg">
<g id="circle-check-filled">
<path id="Vector" d="M14.1667 2.78357C15.4236 3.50928 16.4692 4.55067 17.1999 5.80465C17.9307 7.05863 18.3212 8.48171 18.3329 9.93302C18.3447 11.3843 17.9771 12.8135 17.2668 14.0792C16.5564 15.3448 15.5278 16.4029 14.2828 17.1488C13.0378 17.8948 11.6196 18.3026 10.1685 18.332C8.71744 18.3613 7.28387 18.0112 6.00971 17.3163C4.73555 16.6213 3.66497 15.6057 2.90397 14.3698C2.14297 13.134 1.71792 11.7208 1.67091 10.2702L1.66675 10.0002L1.67091 9.73024C1.71758 8.29106 2.13637 6.88854 2.88645 5.6594C3.63652 4.43026 4.69229 3.41645 5.95082 2.7168C7.20936 2.01716 8.6277 1.65557 10.0676 1.66727C11.5075 1.67897 12.9198 2.06357 14.1667 2.78357ZM13.0892 7.7444C12.9458 7.60092 12.7548 7.51473 12.5523 7.502C12.3498 7.48926 12.1496 7.55086 11.9892 7.67524L11.9109 7.7444L9.16675 10.4877L8.08925 9.41107L8.01091 9.3419C7.85057 9.21762 7.65039 9.15609 7.44792 9.16886C7.24545 9.18164 7.05459 9.26783 6.91113 9.41129C6.76768 9.55474 6.68148 9.7456 6.66871 9.94807C6.65594 10.1505 6.71746 10.3507 6.84175 10.5111L6.91092 10.5894L8.57758 12.2561L8.65592 12.3252C8.80206 12.4386 8.98178 12.5002 9.16675 12.5002C9.35172 12.5002 9.53144 12.4386 9.67758 12.3252L9.75591 12.2561L13.0892 8.92274L13.1584 8.8444C13.2828 8.68407 13.3444 8.48386 13.3317 8.28134C13.3189 8.07881 13.2327 7.8879 13.0892 7.7444Z" fill="#06337E"/>
</g>
</svg>
