<svg width="80" height="80" viewBox="0 0 80 80" fill="none" xmlns="http://www.w3.org/2000/svg">
<g id="circle-chevron-right">
<path id="Vector" d="M36.6667 30L46.6667 40L36.6667 50M10 40C10 43.9397 10.776 47.8407 12.2836 51.4805C13.7913 55.1203 16.001 58.4274 18.7868 61.2132C21.5726 63.999 24.8797 66.2087 28.5195 67.7164C32.1593 69.224 36.0603 70 40 70C43.9397 70 47.8407 69.224 51.4805 67.7164C55.1203 66.2087 58.4274 63.999 61.2132 61.2132C63.999 58.4274 66.2087 55.1203 67.7164 51.4805C69.224 47.8407 70 43.9397 70 40C70 32.0435 66.8393 24.4129 61.2132 18.7868C55.5871 13.1607 47.9565 10 40 10C32.0435 10 24.4129 13.1607 18.7868 18.7868C13.1607 24.4129 10 32.0435 10 40Z" stroke="#1C1C1C" stroke-width="2" stroke-linecap="round" stroke-linejoin="round"/>
</g>
</svg>
