<svg width="24" height="24" viewBox="0 0 24 24" fill="none" xmlns="http://www.w3.org/2000/svg">
<g id="clock" clip-path="url(#clip0_228_2452)">
<path id="Vector" d="M12.5 5.75C12.5 5.55109 12.421 5.36032 12.2803 5.21967C12.1397 5.07902 11.9489 5 11.75 5C11.5511 5 11.3603 5.07902 11.2197 5.21967C11.079 5.36032 11 5.55109 11 5.75V14C11 14.1322 11.035 14.262 11.1014 14.3764C11.1678 14.4907 11.2632 14.5854 11.378 14.651L16.628 17.651C16.8003 17.7441 17.0022 17.7661 17.1905 17.7124C17.3788 17.6586 17.5386 17.5333 17.6358 17.3633C17.7329 17.1933 17.7597 16.992 17.7104 16.8024C17.6612 16.6129 17.5397 16.4502 17.372 16.349L12.5 13.565V5.75Z" fill="#424242"/>
<path id="Vector_2" d="M12 24C15.1826 24 18.2348 22.7357 20.4853 20.4853C22.7357 18.2348 24 15.1826 24 12C24 8.8174 22.7357 5.76516 20.4853 3.51472C18.2348 1.26428 15.1826 0 12 0C8.8174 0 5.76516 1.26428 3.51472 3.51472C1.26428 5.76516 0 8.8174 0 12C0 15.1826 1.26428 18.2348 3.51472 20.4853C5.76516 22.7357 8.8174 24 12 24ZM22.5 12C22.5 14.7848 21.3938 17.4555 19.4246 19.4246C17.4555 21.3938 14.7848 22.5 12 22.5C9.21523 22.5 6.54451 21.3938 4.57538 19.4246C2.60625 17.4555 1.5 14.7848 1.5 12C1.5 9.21523 2.60625 6.54451 4.57538 4.57538C6.54451 2.60625 9.21523 1.5 12 1.5C14.7848 1.5 17.4555 2.60625 19.4246 4.57538C21.3938 6.54451 22.5 9.21523 22.5 12Z" fill="#424242"/>
</g>
<defs>
<clipPath id="clip0_228_2452">
<rect width="24" height="24" fill="white"/>
</clipPath>
</defs>
</svg>
