<svg width="32" height="32" viewBox="0 0 32 32" fill="none" xmlns="http://www.w3.org/2000/svg">
<g id="edit">
<path id="Vector" d="M9.33337 9.33323H8.00004C7.2928 9.33323 6.61452 9.61418 6.11442 10.1143C5.61433 10.6144 5.33337 11.2927 5.33337 11.9999V23.9999C5.33337 24.7071 5.61433 25.3854 6.11442 25.8855C6.61452 26.3856 7.2928 26.6666 8.00004 26.6666H20C20.7073 26.6666 21.3856 26.3856 21.8857 25.8855C22.3858 25.3854 22.6667 24.7071 22.6667 23.9999V22.6666M21.3334 6.66657L25.3334 10.6666M27.18 8.7799C27.7052 8.25477 28.0002 7.54254 28.0002 6.7999C28.0002 6.05725 27.7052 5.34503 27.18 4.8199C26.6549 4.29477 25.9427 3.99976 25.2 3.99976C24.4574 3.99976 23.7452 4.29477 23.22 4.8199L12 15.9999V19.9999H16L27.18 8.7799Z" stroke="#1C1C1C" stroke-width="2" stroke-linecap="round" stroke-linejoin="round"/>
</g>
</svg>
