<svg width="33" height="33" viewBox="0 0 33 33" fill="none" xmlns="http://www.w3.org/2000/svg">
<g id="files">
<path id="Vector" d="M20.4998 4.5V9.83333C20.4998 10.187 20.6403 10.5261 20.8904 10.7761C21.1404 11.0262 21.4795 11.1667 21.8332 11.1667H27.1665M20.4998 4.5H15.1665C14.4593 4.5 13.781 4.78095 13.2809 5.28105C12.7808 5.78115 12.4998 6.45942 12.4998 7.16667V20.5C12.4998 21.2072 12.7808 21.8855 13.2809 22.3856C13.781 22.8857 14.4593 23.1667 15.1665 23.1667H24.4998C25.2071 23.1667 25.8854 22.8857 26.3855 22.3856C26.8856 21.8855 27.1665 21.2072 27.1665 20.5V11.1667M20.4998 4.5L27.1665 11.1667M21.8332 23.1667V25.8333C21.8332 26.5406 21.5522 27.2189 21.0521 27.719C20.552 28.219 19.8737 28.5 19.1665 28.5H9.83317C9.12593 28.5 8.44765 28.219 7.94755 27.719C7.44746 27.2189 7.1665 26.5406 7.1665 25.8333V12.5C7.1665 11.7928 7.44746 11.1145 7.94755 10.6144C8.44765 10.1143 9.12593 9.83333 9.83317 9.83333H12.4998" stroke="#8CA1C4" stroke-width="2" stroke-linecap="round" stroke-linejoin="round"/>
</g>
</svg>
