<svg width="32" height="32" viewBox="0 0 32 32" fill="none" xmlns="http://www.w3.org/2000/svg">
<g id="file">
<path id="Vector" d="M18.666 4V9.33333C18.666 9.68696 18.8065 10.0261 19.0565 10.2761C19.3066 10.5262 19.6457 10.6667 19.9993 10.6667H25.3327M18.666 4H9.33268C8.62544 4 7.94716 4.28095 7.44706 4.78105C6.94697 5.28115 6.66602 5.95942 6.66602 6.66667V25.3333C6.66602 26.0406 6.94697 26.7189 7.44706 27.219C7.94716 27.719 8.62544 28 9.33268 28H22.666C23.3733 28 24.0515 27.719 24.5516 27.219C25.0517 26.7189 25.3327 26.0406 25.3327 25.3333V10.6667M18.666 4L25.3327 10.6667" stroke="#1C1C1C" stroke-width="2" stroke-linecap="round" stroke-linejoin="round"/>
</g>
</svg>
