<svg width="32" height="33" viewBox="0 0 32 33" fill="none" xmlns="http://www.w3.org/2000/svg">
<g id="file">
<path id="Vector" d="M18.6665 4.8252V10.1585C18.6665 10.5122 18.807 10.8513 19.057 11.1013C19.3071 11.3514 19.6462 11.4919 19.9998 11.4919H25.3332M18.6665 4.8252H9.33317C8.62593 4.8252 7.94765 5.10615 7.44755 5.60624C6.94746 6.10634 6.6665 6.78462 6.6665 7.49186V26.1585C6.6665 26.8658 6.94746 27.544 7.44755 28.0441C7.94765 28.5442 8.62593 28.8252 9.33317 28.8252H22.6665C23.3737 28.8252 24.052 28.5442 24.5521 28.0441C25.0522 27.544 25.3332 26.8658 25.3332 26.1585V11.4919M18.6665 4.8252L25.3332 11.4919" stroke="#1C1C1C" stroke-width="2" stroke-linecap="round" stroke-linejoin="round"/>
</g>
</svg>
