<svg width="21" height="21" viewBox="0 0 21 21" fill="none" xmlns="http://www.w3.org/2000/svg">
<g id="share-2">
<path id="Vector" d="M7.1665 8H6.33317C5.89114 8 5.46722 8.17559 5.15466 8.48816C4.8421 8.80072 4.6665 9.22464 4.6665 9.66667V16.3333C4.6665 16.7754 4.8421 17.1993 5.15466 17.5118C5.46722 17.8244 5.89114 18 6.33317 18H14.6665C15.1085 18 15.5325 17.8244 15.845 17.5118C16.1576 17.1993 16.3332 16.7754 16.3332 16.3333V9.66667C16.3332 9.22464 16.1576 8.80072 15.845 8.48816C15.5325 8.17559 15.1085 8 14.6665 8H13.8332M10.4998 12.1667V3M10.4998 3L7.99984 5.5M10.4998 3L12.9998 5.5" stroke="#0A5FFF" stroke-width="2" stroke-linecap="round" stroke-linejoin="round"/>
</g>
</svg>
