<svg width="16" height="17" viewBox="0 0 16 17" fill="none" xmlns="http://www.w3.org/2000/svg">
<g id="funnel-fill">
<path id="Vector" d="M1.33398 2.33325C1.33398 2.20064 1.38666 2.07347 1.48043 1.9797C1.5742 1.88593 1.70138 1.83325 1.83398 1.83325H13.834C13.9666 1.83325 14.0938 1.88593 14.1875 1.9797C14.2813 2.07347 14.334 2.20064 14.334 2.33325V4.33325C14.334 4.45656 14.2884 4.57551 14.206 4.66725L9.83398 9.52525V14.3333C9.8339 14.4382 9.80084 14.5404 9.73946 14.6254C9.67808 14.7105 9.59151 14.7741 9.49198 14.8073L6.49198 15.8073C6.41686 15.8323 6.33686 15.8391 6.25858 15.8272C6.18031 15.8152 6.10598 15.7849 6.04173 15.7386C5.97749 15.6923 5.92515 15.6314 5.88903 15.5609C5.85291 15.4905 5.83404 15.4124 5.83398 15.3333V9.52525L1.46198 4.66725C1.37959 4.57551 1.33401 4.45656 1.33398 4.33325V2.33325Z" fill="#06337E"/>
</g>
</svg>
