<svg width="24" height="25" viewBox="0 0 24 25" fill="none" xmlns="http://www.w3.org/2000/svg">
<g id="music">
<path id="Vector" d="M9 17.3252C9 18.1208 8.68393 18.8839 8.12132 19.4465C7.55871 20.0091 6.79565 20.3252 6 20.3252C5.20435 20.3252 4.44129 20.0091 3.87868 19.4465C3.31607 18.8839 3 18.1208 3 17.3252C3 16.5295 3.31607 15.7665 3.87868 15.2039C4.44129 14.6413 5.20435 14.3252 6 14.3252C6.79565 14.3252 7.55871 14.6413 8.12132 15.2039C8.68393 15.7665 9 16.5295 9 17.3252ZM9 17.3252V4.3252H19V17.3252M19 17.3252C19 18.1208 18.6839 18.8839 18.1213 19.4465C17.5587 20.0091 16.7956 20.3252 16 20.3252C15.2044 20.3252 14.4413 20.0091 13.8787 19.4465C13.3161 18.8839 13 18.1208 13 17.3252C13 16.5295 13.3161 15.7665 13.8787 15.2039C14.4413 14.6413 15.2044 14.3252 16 14.3252C16.7956 14.3252 17.5587 14.6413 18.1213 15.2039C18.6839 15.7665 19 16.5295 19 17.3252ZM9 8.3252H19" stroke="#354052" stroke-width="2" stroke-linecap="round" stroke-linejoin="round"/>
</g>
</svg>
