<svg width="16" height="16" viewBox="0 0 16 16" fill="none" xmlns="http://www.w3.org/2000/svg">
<g id="paperclip">
<path id="Vector" d="M9.99785 4.66681L5.66452 9.00014C5.3993 9.26536 5.2503 9.62507 5.2503 10.0001C5.2503 10.3752 5.3993 10.7349 5.66452 11.0001C5.92973 11.2654 6.28944 11.4144 6.66452 11.4144C7.03959 11.4144 7.3993 11.2654 7.66452 11.0001L11.9978 6.66681C12.5283 6.13637 12.8263 5.41695 12.8263 4.66681C12.8263 3.91666 12.5283 3.19724 11.9978 2.66681C11.4674 2.13637 10.748 1.83838 9.99785 1.83838C9.2477 1.83838 8.52828 2.13637 7.99785 2.66681L3.66452 7.00014C2.86887 7.79579 2.42187 8.87492 2.42188 10.0001C2.42188 11.1254 2.86887 12.2045 3.66452 13.0001C4.46017 13.7958 5.5393 14.2428 6.66452 14.2428C7.78973 14.2428 8.86887 13.7958 9.66452 13.0001L13.9978 8.66681" stroke="black" stroke-linecap="round" stroke-linejoin="round"/>
</g>
</svg>
