<svg width="32" height="33" viewBox="0 0 32 33" fill="none" xmlns="http://www.w3.org/2000/svg">
<g id="plus-square" clip-path="url(#clip0_228_2516)">
<path id="Vector" d="M28 2.5C28.5304 2.5 29.0391 2.71071 29.4142 3.08579C29.7893 3.46086 30 3.96957 30 4.5V28.5C30 29.0304 29.7893 29.5391 29.4142 29.9142C29.0391 30.2893 28.5304 30.5 28 30.5H4C3.46957 30.5 2.96086 30.2893 2.58579 29.9142C2.21071 29.5391 2 29.0304 2 28.5V4.5C2 3.96957 2.21071 3.46086 2.58579 3.08579C2.96086 2.71071 3.46957 2.5 4 2.5H28ZM4 0.5C2.93913 0.5 1.92172 0.921427 1.17157 1.67157C0.421427 2.42172 0 3.43913 0 4.5L0 28.5C0 29.5609 0.421427 30.5783 1.17157 31.3284C1.92172 32.0786 2.93913 32.5 4 32.5H28C29.0609 32.5 30.0783 32.0786 30.8284 31.3284C31.5786 30.5783 32 29.5609 32 28.5V4.5C32 3.43913 31.5786 2.42172 30.8284 1.67157C30.0783 0.921427 29.0609 0.5 28 0.5L4 0.5Z" fill="#06337E"/>
<path id="Vector_2" d="M16 8.5C16.2652 8.5 16.5196 8.60536 16.7071 8.79289C16.8946 8.98043 17 9.23478 17 9.5V15.5H23C23.2652 15.5 23.5196 15.6054 23.7071 15.7929C23.8946 15.9804 24 16.2348 24 16.5C24 16.7652 23.8946 17.0196 23.7071 17.2071C23.5196 17.3946 23.2652 17.5 23 17.5H17V23.5C17 23.7652 16.8946 24.0196 16.7071 24.2071C16.5196 24.3946 16.2652 24.5 16 24.5C15.7348 24.5 15.4804 24.3946 15.2929 24.2071C15.1054 24.0196 15 23.7652 15 23.5V17.5H9C8.73478 17.5 8.48043 17.3946 8.29289 17.2071C8.10536 17.0196 8 16.7652 8 16.5C8 16.2348 8.10536 15.9804 8.29289 15.7929C8.48043 15.6054 8.73478 15.5 9 15.5H15V9.5C15 9.23478 15.1054 8.98043 15.2929 8.79289C15.4804 8.60536 15.7348 8.5 16 8.5Z" fill="#06337E"/>
</g>
<defs>
<clipPath id="clip0_228_2516">
<rect width="32" height="32" fill="white" transform="translate(0 0.5)"/>
</clipPath>
</defs>
</svg>
