<svg width="20" height="20" viewBox="0 0 20 20" fill="none" xmlns="http://www.w3.org/2000/svg">
<path id="Vector" d="M15 1.33989C16.5083 2.21075 17.7629 3.46042 18.6398 4.96519C19.5167 6.46997 19.9854 8.17766 19.9994 9.91923C20.0135 11.6608 19.5725 13.3758 18.72 14.8946C17.8676 16.4133 16.6332 17.6831 15.1392 18.5782C13.6452 19.4733 11.9434 19.9627 10.2021 19.998C8.46083 20.0332 6.74055 19.6131 5.21155 18.7791C3.68256 17.9452 2.39787 16.7264 1.48467 15.2434C0.571462 13.7604 0.0614093 12.0646 0.00500011 10.3239L0 9.99989L0.00500011 9.67589C0.0610032 7.94888 0.563548 6.26585 1.46364 4.79089C2.36373 3.31592 3.63065 2.09934 5.14089 1.25977C6.65113 0.420205 8.35315 -0.0137108 10.081 0.000330246C11.8089 0.0143713 13.5036 0.47589 15 1.33989ZM10 7.99989C9.52206 7.99987 9.05992 8.17101 8.69726 8.4823C8.3346 8.7936 8.09541 9.22447 8.023 9.69689L8.005 9.85089L8 9.99989L8.005 10.1499C8.03419 10.5379 8.17594 10.909 8.4129 11.2177C8.64986 11.5264 8.97172 11.7593 9.33904 11.8877C9.70637 12.0162 10.1032 12.0348 10.4809 11.9411C10.8586 11.8474 11.2007 11.6455 11.4654 11.3603C11.7301 11.075 11.9059 10.7187 11.9711 10.3351C12.0363 9.95145 11.9882 9.55712 11.8326 9.20042C11.6771 8.84372 11.4208 8.54014 11.0953 8.3269C10.7698 8.11366 10.3891 8.00002 10 7.99989Z" fill="#D24B5A"/>
</svg>
