<svg width="20" height="21" viewBox="0 0 20 21" fill="none" xmlns="http://www.w3.org/2000/svg">
<g id="trash">
<path id="Vector" d="M3.33325 6.33333H16.6666M8.33325 9.66667V14.6667M11.6666 9.66667V14.6667M4.16659 6.33333L4.99992 16.3333C4.99992 16.7754 5.17551 17.1993 5.48807 17.5118C5.80063 17.8244 6.22456 18 6.66659 18H13.3333C13.7753 18 14.1992 17.8244 14.5118 17.5118C14.8243 17.1993 14.9999 16.7754 14.9999 16.3333L15.8333 6.33333M7.49992 6.33333V3.83333C7.49992 3.61232 7.58772 3.40036 7.744 3.24408C7.90028 3.0878 8.11224 3 8.33325 3H11.6666C11.8876 3 12.0996 3.0878 12.2558 3.24408C12.4121 3.40036 12.4999 3.61232 12.4999 3.83333V6.33333" stroke="#D24B5A" stroke-width="1.5" stroke-linecap="round" stroke-linejoin="round"/>
</g>
</svg>
