<svg width="32" height="33" viewBox="0 0 32 33" fill="none" xmlns="http://www.w3.org/2000/svg">
<g id="files">
<path id="Vector" d="M19.9998 4.5V9.83333C19.9998 10.187 20.1403 10.5261 20.3904 10.7761C20.6404 11.0262 20.9795 11.1667 21.3332 11.1667H26.6665M19.9998 4.5H14.6665C13.9593 4.5 13.281 4.78095 12.7809 5.28105C12.2808 5.78115 11.9998 6.45942 11.9998 7.16667V20.5C11.9998 21.2072 12.2808 21.8855 12.7809 22.3856C13.281 22.8857 13.9593 23.1667 14.6665 23.1667H23.9998C24.7071 23.1667 25.3854 22.8857 25.8855 22.3856C26.3856 21.8855 26.6665 21.2072 26.6665 20.5V11.1667M19.9998 4.5L26.6665 11.1667M21.3332 23.1667V25.8333C21.3332 26.5406 21.0522 27.2189 20.5521 27.719C20.052 28.219 19.3737 28.5 18.6665 28.5H9.33317C8.62593 28.5 7.94765 28.219 7.44755 27.719C6.94746 27.2189 6.6665 26.5406 6.6665 25.8333V12.5C6.6665 11.7928 6.94746 11.1145 7.44755 10.6144C7.94765 10.1143 8.62593 9.83333 9.33317 9.83333H11.9998" stroke="#B2C0D7" stroke-width="2" stroke-linecap="round" stroke-linejoin="round"/>
</g>
</svg>
