<svg width="33" height="33" viewBox="0 0 33 33" fill="none" xmlns="http://www.w3.org/2000/svg">
<g id="file-pencil">
<path id="Vector" d="M19.167 4.5V9.83333C19.167 10.187 19.3075 10.5261 19.5575 10.7761C19.8076 11.0262 20.1467 11.1667 20.5003 11.1667H25.8337M19.167 4.5H9.83366C9.12641 4.5 8.44814 4.78095 7.94804 5.28105C7.44794 5.78115 7.16699 6.45942 7.16699 7.16667V25.8333C7.16699 26.5406 7.44794 27.2189 7.94804 27.719C8.44814 28.219 9.12641 28.5 9.83366 28.5H23.167C23.8742 28.5 24.5525 28.219 25.0526 27.719C25.5527 27.2189 25.8337 26.5406 25.8337 25.8333V11.1667M19.167 4.5L25.8337 11.1667M13.8337 24.5L20.5003 17.8333C20.8539 17.4797 21.0526 17.0001 21.0526 16.5C21.0526 15.9999 20.8539 15.5203 20.5003 15.1667C20.1467 14.813 19.6671 14.6144 19.167 14.6144C18.6669 14.6144 18.1873 14.813 17.8337 15.1667L11.167 21.8333V24.5H13.8337Z" stroke="#666666" stroke-width="2" stroke-linecap="round" stroke-linejoin="round"/>
</g>
</svg>
