<svg width="32" height="33" viewBox="0 0 32 33" fill="none" xmlns="http://www.w3.org/2000/svg">
<g id="photo">
<path id="Vector" d="M20 11.1667H20.0133M4 21.8333L10.6667 15.1667C11.904 13.976 13.4293 13.976 14.6667 15.1667L21.3333 21.8333M18.6667 19.1667L20 17.8333C21.2373 16.6427 22.7627 16.6427 24 17.8333L28 21.8333M4 8.5C4 7.43913 4.42143 6.42172 5.17157 5.67157C5.92172 4.92143 6.93913 4.5 8 4.5H24C25.0609 4.5 26.0783 4.92143 26.8284 5.67157C27.5786 6.42172 28 7.43913 28 8.5V24.5C28 25.5609 27.5786 26.5783 26.8284 27.3284C26.0783 28.0786 25.0609 28.5 24 28.5H8C6.93913 28.5 5.92172 28.0786 5.17157 27.3284C4.42143 26.5783 4 25.5609 4 24.5V8.5Z" stroke="#666666" stroke-width="2" stroke-linecap="round" stroke-linejoin="round"/>
</g>
</svg>
